<svg width="38" height="38" viewBox="0 0 38 38" fill="none" xmlns="http://www.w3.org/2000/svg">
<path d="M19.2658 0.00176529C8.5806 -0.142548 -0.142555 8.58019 0.00176537 19.2649C0.144259 29.512 8.48835 37.8557 18.736 37.9982C29.423 38.1443 38.1443 29.4216 37.9982 18.7369C37.8575 8.48794 29.5134 0.144252 19.2658 0.00176529ZM17.7322 17.5815L22.4408 12.1926C22.6959 11.9007 23.0565 11.7221 23.4433 11.696C23.8301 11.67 24.2114 11.7987 24.5033 12.0538C24.7952 12.3088 24.9739 12.6694 24.9999 13.0562C25.0259 13.443 24.8973 13.8243 24.6422 14.1162L19.9335 19.5051C19.8072 19.6496 19.6536 19.7679 19.4816 19.8531C19.3096 19.9383 19.1225 19.9887 18.931 20.0016C18.7395 20.0145 18.5473 19.9896 18.3654 19.9282C18.1835 19.8668 18.0155 19.7702 17.871 19.6439C17.7265 19.5176 17.6082 19.3641 17.523 19.1921C17.4378 19.0201 17.3873 18.833 17.3744 18.6415C17.3615 18.4499 17.3865 18.2578 17.4479 18.0759C17.5092 17.894 17.6058 17.726 17.7322 17.5815ZM14.1826 25.8795C13.9086 26.1534 13.537 26.3072 13.1495 26.3072C12.7621 26.3072 12.3905 26.1534 12.1164 25.8795L7.7366 21.4953C7.60094 21.3595 7.49334 21.1984 7.41997 21.021C7.34659 20.8437 7.30887 20.6536 7.30896 20.4616C7.30904 20.2697 7.34693 20.0797 7.42046 19.9024C7.494 19.7251 7.60173 19.564 7.73752 19.4284C7.8733 19.2927 8.03448 19.1851 8.21185 19.1117C8.38921 19.0384 8.57929 19.0006 8.77124 19.0007C8.96318 19.0008 9.15323 19.0387 9.33054 19.1122C9.50784 19.1858 9.66892 19.2935 9.80458 19.4293L14.189 23.8135C14.462 24.0884 14.6147 24.4604 14.6135 24.8478C14.6123 25.2352 14.4573 25.6063 14.1826 25.8795ZM30.3319 14.1162L20.1125 25.8074C19.9809 25.9582 19.8196 26.0804 19.6387 26.1664C19.4579 26.2523 19.2613 26.3002 19.0612 26.307H19.0119C18.8198 26.307 18.6296 26.2692 18.4522 26.1957C18.2748 26.1222 18.1136 26.0144 17.9779 25.8786L13.5989 21.4944C13.3249 21.2202 13.1711 20.8484 13.1713 20.4607C13.1715 20.0731 13.3256 19.7014 13.5998 19.4274C13.8741 19.1535 14.2459 18.9996 14.6336 18.9998C15.0212 19 15.3929 19.1541 15.6669 19.4284L18.3889 22.153C18.4597 22.2237 18.5442 22.2792 18.6373 22.316C18.7304 22.3527 18.83 22.37 18.9301 22.3666C19.0301 22.3633 19.1284 22.3394 19.2188 22.2966C19.3092 22.2537 19.3899 22.1927 19.4558 22.1173L28.1333 12.1926C28.3884 11.9007 28.749 11.7221 29.1358 11.696C29.5225 11.67 29.9038 11.7987 30.1958 12.0538C30.4877 12.3088 30.6663 12.6694 30.6923 13.0562C30.7184 13.443 30.5897 13.8243 30.3346 14.1162H30.3319Z" fill="white"/>
</svg>
