<svg width="39" height="38" viewBox="0 0 39 38" fill="none" xmlns="http://www.w3.org/2000/svg">
<path d="M19.5 0C8.736 0 0 8.512 0 19C0 29.488 8.736 38 19.5 38C30.264 38 39 29.488 39 19C39 8.512 30.264 0 19.5 0ZM9.75 21.85C8.1315 21.85 6.825 20.577 6.825 19C6.825 17.423 8.1315 16.15 9.75 16.15C11.3685 16.15 12.675 17.423 12.675 19C12.675 20.577 11.3685 21.85 9.75 21.85ZM19.5 21.85C17.8815 21.85 16.575 20.577 16.575 19C16.575 17.423 17.8815 16.15 19.5 16.15C21.1185 16.15 22.425 17.423 22.425 19C22.425 20.577 21.1185 21.85 19.5 21.85ZM29.25 21.85C27.6315 21.85 26.325 20.577 26.325 19C26.325 17.423 27.6315 16.15 29.25 16.15C30.8685 16.15 32.175 17.423 32.175 19C32.175 20.577 30.8685 21.85 29.25 21.85Z" fill="#E0E025"/>
</svg>
